<svg xmlns="http://www.w3.org/2000/svg" viewBox="0 0 249.51 150.68"><defs><style>.cls-1,.cls-2{fill:none;stroke:#000;stroke-miterlimit:10;}.cls-2{stroke-width:3px;}</style></defs><title>down-chevron-stroke</title><g id="Layer_2" data-name="Layer 2"><g id="Layer_1-2" data-name="Layer 1"><polygon class="cls-1" points="248.1 26.21 149.9 124.4 125.04 149.26 124.76 148.98 100.25 124.47 100.32 124.4 124.47 148.56 124.76 148.28 125.04 148.56 149.2 124.4 149.55 124.05 247.39 26.21 223.3 2.12 125.11 100.31 124.76 100.67 124.41 100.32 124.76 99.96 125.11 99.61 223.3 1.42 248.1 26.21"/><path class="cls-1" d="M223.3.71,124.76,99.26l-.36.35L124,100l.36.36.35.35.35-.36L223.3,2.12l24.09,24.09-97.84,97.84-.35.35L125,148.56l-.28-.28-.29.28L100.32,124.4l-.36-.35-.35.35-.07.07L125,150,248.8,26.21Z"/><polygon class="cls-2" points="247.39 26.21 149.55 124.05 149.2 124.4 125.04 148.56 124.76 148.28 124.47 148.56 100.32 124.4 99.96 124.05 2.13 26.21 26.21 2.12 124.41 100.32 124.76 100.67 125.11 100.31 223.3 2.12 247.39 26.21"/><polygon class="cls-1" points="149.27 124.47 124.76 148.98 124.47 149.26 1.42 26.21 26.21 1.42 124.4 99.61 124.76 99.96 125.11 100.31 124.76 100.67 124.41 100.32 26.21 2.12 2.13 26.21 99.96 124.05 100.32 124.4 124.47 148.56 124.76 148.28 125.04 148.56 149.2 124.4 149.27 124.47"/><path class="cls-1" d="M149.9,124.4l-.35-.35-.35.35L125,148.56l-.28-.28-.29.28L100.32,124.4l-.36-.35L2.13,26.21,26.21,2.12l98.2,98.2.35.35.35-.36.35-.35-.35-.35-.35-.35L26.21.71.71,26.21,124.47,150l.29-.28L150,124.47Z"/></g></g></svg>