<svg xmlns="http://www.w3.org/2000/svg" viewBox="0 0 150.68 249.51"><defs><style>.cls-1,.cls-2{fill:none;stroke:#000;stroke-miterlimit:10;}.cls-2{stroke-width:3px;}</style></defs><title>left-chevron-stroke</title><g id="Layer_2" data-name="Layer 2"><g id="Layer_1-2" data-name="Layer 1"><polygon class="cls-1" points="124.47 248.1 26.28 149.9 1.42 125.04 1.7 124.76 26.21 100.25 26.28 100.32 2.12 124.47 2.4 124.76 2.12 125.04 26.28 149.2 26.63 149.55 124.47 247.39 148.56 223.3 50.37 125.11 50.01 124.76 50.36 124.41 50.72 124.76 51.07 125.11 149.26 223.3 124.47 248.1"/><path class="cls-1" d="M150,223.3,51.42,124.76l-.35-.36-.35-.35-.36.36-.35.35.36.35,98.19,98.19-24.09,24.09L26.63,149.55l-.35-.35L2.12,125l.28-.28-.28-.29,24.16-24.15.35-.36-.35-.35-.07-.07L.71,125,124.47,248.8Z"/><polygon class="cls-2" points="124.47 247.39 26.63 149.55 26.28 149.2 2.12 125.04 2.4 124.76 2.12 124.47 26.28 100.32 26.63 99.96 124.47 2.13 148.56 26.21 50.36 124.41 50.01 124.76 50.37 125.11 148.56 223.3 124.47 247.39"/><polygon class="cls-1" points="26.21 149.27 1.7 124.76 1.42 124.47 124.47 1.42 149.26 26.21 51.07 124.4 50.72 124.76 50.37 125.11 50.01 124.76 50.36 124.41 148.56 26.21 124.47 2.13 26.63 99.96 26.28 100.32 2.12 124.47 2.4 124.76 2.12 125.04 26.28 149.2 26.21 149.27"/><path class="cls-1" d="M26.28,149.9l.35-.35-.35-.35L2.12,125l.28-.28-.28-.29,24.16-24.15.35-.36L124.47,2.13l24.09,24.08-98.2,98.2-.35.35.36.35.35.35.35-.35.35-.35L150,26.21,124.47.71.71,124.47l.28.29L26.21,150Z"/></g></g></svg>