<svg xmlns="http://www.w3.org/2000/svg" viewBox="0 0 150.68 249.51"><defs><style>.cls-1,.cls-2{fill:none;stroke:#000;stroke-miterlimit:10;}.cls-2{stroke-width:3px;}</style></defs><title>left-chevron-stroke_1</title><g id="Layer_2" data-name="Layer 2"><g id="Layer_1-2" data-name="Layer 1"><polygon class="cls-1" points="26.21 1.41 124.4 99.61 149.26 124.47 148.98 124.75 124.47 149.26 124.4 149.19 148.56 125.04 148.28 124.75 148.56 124.47 124.4 100.31 124.05 99.96 26.21 2.12 2.12 26.21 100.31 124.4 100.67 124.75 100.32 125.1 99.96 124.75 99.61 124.4 1.42 26.21 26.21 1.41"/><path class="cls-1" d="M.71,26.21l98.55,98.54.35.36.35.35.36-.36.35-.35-.36-.35L2.12,26.21,26.21,2.12,124.05,100l.35.35,24.16,24.16-.28.28.28.29L124.4,149.19l-.35.36.35.35.07.07,25.5-25.5L26.21.71Z"/><polygon class="cls-2" points="26.21 2.12 124.05 99.96 124.4 100.31 148.56 124.47 148.28 124.75 148.56 125.04 124.4 149.19 124.05 149.55 26.21 247.38 2.12 223.3 100.32 125.1 100.67 124.75 100.31 124.4 2.12 26.21 26.21 2.12"/><polygon class="cls-1" points="124.47 100.24 148.98 124.75 149.26 125.04 26.21 248.09 1.42 223.3 99.61 125.11 99.96 124.75 100.31 124.4 100.67 124.75 100.32 125.1 2.12 223.3 26.21 247.38 124.05 149.55 124.4 149.19 148.56 125.04 148.28 124.75 148.56 124.47 124.4 100.31 124.47 100.24"/><path class="cls-1" d="M124.4,99.61l-.35.35.35.35,24.16,24.16-.28.28.28.29L124.4,149.19l-.35.36L26.21,247.38,2.12,223.3l98.2-98.2.35-.35-.36-.35-.35-.35-.35.35-.35.35L.71,223.3l25.5,25.5L150,125l-.28-.29L124.47,99.54Z"/></g></g></svg>